<?xml version="1.0" encoding="UTF-8" standalone="no"?>
<!DOCTYPE svg PUBLIC "-//W3C//DTD SVG 1.1//EN"
 "http://www.w3.org/Graphics/SVG/1.1/DTD/svg11.dtd">
<!-- Generated by graphviz version 2.38.0 (20140413.2041)
 -->
<!-- Title: G Pages: 1 -->
<svg width="265pt" height="416pt"
 viewBox="0.00 0.00 265.39 415.81" xmlns="http://www.w3.org/2000/svg" xmlns:xlink="http://www.w3.org/1999/xlink">
<g id="graph0" class="graph" transform="scale(1 1) rotate(0) translate(4 411.813)">
<title>G</title>
<polygon fill="white" stroke="none" points="-4,4 -4,-411.813 261.387,-411.813 261.387,4 -4,4"/>
<!-- n1 -->
<g id="node1" class="node"><title>n1</title>
<g id="a_node1"><a xlink:title="[[C]]:&#45;1_">
<ellipse fill="none" stroke="black" cx="128.693" cy="-148.43" rx="84.2917" ry="37.4533"/>
<text text-anchor="middle" x="128.693" y="-159.73" font-family="Times,serif" font-size="14.00">Node1</text>
<text text-anchor="start" x="77.1934" y="-144.73" font-family="Times,serif" font-size="14.00">module = nn.Tanh</text>
<text text-anchor="middle" x="128.693" y="-129.73" font-family="Times,serif" font-size="14.00">reverseMap = {}</text>
</a>
</g>
</g>
<!-- n2 -->
<g id="node2" class="node"><title>n2</title>
<g id="a_node2"><a xlink:title="[[C]]:&#45;1_">
<ellipse fill="none" stroke="black" cx="128.693" cy="-37.4767" rx="77.5641" ry="37.4533"/>
<text text-anchor="middle" x="128.693" y="-48.7767" font-family="Times,serif" font-size="14.00">Node2</text>
<text text-anchor="start" x="81.6934" y="-33.7767" font-family="Times,serif" font-size="14.00">input = {}</text>
<text text-anchor="middle" x="128.693" y="-18.7767" font-family="Times,serif" font-size="14.00">reverseMap = {}</text>
</a>
</g>
</g>
<!-- n1&#45;&gt;n2 -->
<g id="edge1" class="edge"><title>n1&#45;&gt;n2</title>
<path fill="none" stroke="black" d="M128.693,-110.847C128.693,-102.672 128.693,-93.8927 128.693,-85.3661"/>
<polygon fill="black" stroke="black" points="132.194,-85.1485 128.693,-75.1485 125.194,-85.1486 132.194,-85.1485"/>
</g>
<!-- n3 -->
<g id="node3" class="node"><title>n3</title>
<g id="a_node3"><a xlink:title="[[C]]:&#45;1_">
<ellipse fill="none" stroke="black" cx="128.693" cy="-259.383" rx="128.887" ry="37.4533"/>
<text text-anchor="middle" x="128.693" y="-270.683" font-family="Times,serif" font-size="14.00">Node3</text>
<text text-anchor="start" x="45.6934" y="-255.683" font-family="Times,serif" font-size="14.00">module = nn.Linear(20 &#45;&gt; 10)</text>
<text text-anchor="middle" x="128.693" y="-240.683" font-family="Times,serif" font-size="14.00">reverseMap = {}</text>
</a>
</g>
</g>
<!-- n3&#45;&gt;n1 -->
<g id="edge2" class="edge"><title>n3&#45;&gt;n1</title>
<path fill="none" stroke="black" d="M128.693,-221.8C128.693,-213.626 128.693,-204.846 128.693,-196.319"/>
<polygon fill="black" stroke="black" points="132.194,-196.102 128.693,-186.102 125.194,-196.102 132.194,-196.102"/>
</g>
<!-- n4 -->
<g id="node4" class="node"><title>n4</title>
<g id="a_node4"><a xlink:title="[[C]]:&#45;1_">
<ellipse fill="none" stroke="black" cx="128.693" cy="-370.337" rx="77.5641" ry="37.4533"/>
<text text-anchor="middle" x="128.693" y="-381.637" font-family="Times,serif" font-size="14.00">Node4</text>
<text text-anchor="start" x="81.6934" y="-366.637" font-family="Times,serif" font-size="14.00">input = {}</text>
<text text-anchor="middle" x="128.693" y="-351.637" font-family="Times,serif" font-size="14.00">reverseMap = {}</text>
</a>
</g>
</g>
<!-- n4&#45;&gt;n3 -->
<g id="edge3" class="edge"><title>n4&#45;&gt;n3</title>
<path fill="none" stroke="black" d="M128.693,-332.754C128.693,-324.579 128.693,-315.799 128.693,-307.273"/>
<polygon fill="black" stroke="black" points="132.194,-307.055 128.693,-297.055 125.194,-307.055 132.194,-307.055"/>
</g>
</g>
</svg>
