<?xml version="1.0" encoding="UTF-8" standalone="no"?>
<!DOCTYPE svg PUBLIC "-//W3C//DTD SVG 1.1//EN"
 "http://www.w3.org/Graphics/SVG/1.1/DTD/svg11.dtd">
<!-- Generated by graphviz version 2.38.0 (20140413.2041)
 -->
<!-- Title: G Pages: 1 -->
<svg width="422pt" height="1235pt"
 viewBox="0.00 0.00 422.39 1234.91" xmlns="http://www.w3.org/2000/svg" xmlns:xlink="http://www.w3.org/1999/xlink">
<g id="graph0" class="graph" transform="scale(1 1) rotate(0) translate(4 1230.91)">
<title>G</title>
<polygon fill="white" stroke="none" points="-4,4 -4,-1230.91 418.387,-1230.91 418.387,4 -4,4"/>
<!-- n1 -->
<g id="node1" class="node"><title>n1</title>
<g id="a_node1"><a xlink:title="[[C]]:&#45;1_">
<ellipse fill="none" stroke="black" cx="195.693" cy="-148.43" rx="84.2917" ry="37.4533"/>
<text text-anchor="middle" x="195.693" y="-159.73" font-family="Times,serif" font-size="14.00">Node1</text>
<text text-anchor="start" x="144.193" y="-144.73" font-family="Times,serif" font-size="14.00">module = nn.Tanh</text>
<text text-anchor="middle" x="195.693" y="-129.73" font-family="Times,serif" font-size="14.00">reverseMap = {}</text>
</a>
</g>
</g>
<!-- n2 -->
<g id="node2" class="node"><title>n2</title>
<g id="a_node2"><a xlink:title="[[C]]:&#45;1_">
<ellipse fill="none" stroke="black" cx="195.693" cy="-37.4767" rx="77.5641" ry="37.4533"/>
<text text-anchor="middle" x="195.693" y="-48.7767" font-family="Times,serif" font-size="14.00">Node2</text>
<text text-anchor="start" x="148.693" y="-33.7767" font-family="Times,serif" font-size="14.00">input = {}</text>
<text text-anchor="middle" x="195.693" y="-18.7767" font-family="Times,serif" font-size="14.00">reverseMap = {}</text>
</a>
</g>
</g>
<!-- n1&#45;&gt;n2 -->
<g id="edge1" class="edge"><title>n1&#45;&gt;n2</title>
<path fill="none" stroke="black" d="M195.693,-110.847C195.693,-102.672 195.693,-93.8927 195.693,-85.3661"/>
<polygon fill="black" stroke="black" points="199.194,-85.1485 195.693,-75.1485 192.194,-85.1486 199.194,-85.1485"/>
</g>
<!-- n3 -->
<g id="node3" class="node"><title>n3</title>
<g id="a_node3"><a xlink:title="[[C]]:&#45;1_">
<ellipse fill="none" stroke="black" cx="195.693" cy="-259.383" rx="124.402" ry="37.4533"/>
<text text-anchor="middle" x="195.693" y="-270.683" font-family="Times,serif" font-size="14.00">Node3</text>
<text text-anchor="start" x="115.693" y="-255.683" font-family="Times,serif" font-size="14.00">module = nn.Linear(80 &#45;&gt; 1)</text>
<text text-anchor="middle" x="195.693" y="-240.683" font-family="Times,serif" font-size="14.00">reverseMap = {}</text>
</a>
</g>
</g>
<!-- n3&#45;&gt;n1 -->
<g id="edge2" class="edge"><title>n3&#45;&gt;n1</title>
<path fill="none" stroke="black" d="M195.693,-221.8C195.693,-213.626 195.693,-204.846 195.693,-196.319"/>
<polygon fill="black" stroke="black" points="199.194,-196.102 195.693,-186.102 192.194,-196.102 199.194,-196.102"/>
</g>
<!-- n4 -->
<g id="node4" class="node"><title>n4</title>
<g id="a_node4"><a xlink:title="[[C]]:&#45;1_">
<ellipse fill="none" stroke="black" cx="195.693" cy="-380.943" rx="124.402" ry="48.1667"/>
<text text-anchor="middle" x="195.693" y="-399.743" font-family="Times,serif" font-size="14.00">Node4</text>
<text text-anchor="start" x="115.693" y="-384.743" font-family="Times,serif" font-size="14.00">module = nn.JoinTable</text>
<text text-anchor="start" x="115.693" y="-369.743" font-family="Times,serif" font-size="14.00">reverseMap = {}</text>
<text text-anchor="middle" x="195.693" y="-354.743" font-family="Times,serif" font-size="14.00">mapindex = {Node5,Node6}</text>
</a>
</g>
</g>
<!-- n4&#45;&gt;n3 -->
<g id="edge3" class="edge"><title>n4&#45;&gt;n3</title>
<path fill="none" stroke="black" d="M195.693,-332.69C195.693,-324.244 195.693,-315.45 195.693,-307.022"/>
<polygon fill="black" stroke="black" points="199.194,-306.971 195.693,-296.971 192.194,-306.971 199.194,-306.971"/>
</g>
<!-- n5 -->
<g id="node5" class="node"><title>n5</title>
<g id="a_node5"><a xlink:title="[[C]]:&#45;1_">
<ellipse fill="none" stroke="black" cx="128.693" cy="-856.576" rx="84.2917" ry="37.4533"/>
<text text-anchor="middle" x="128.693" y="-867.876" font-family="Times,serif" font-size="14.00">Node5</text>
<text text-anchor="start" x="77.1934" y="-852.876" font-family="Times,serif" font-size="14.00">module = nn.Tanh</text>
<text text-anchor="middle" x="128.693" y="-837.876" font-family="Times,serif" font-size="14.00">reverseMap = {}</text>
</a>
</g>
</g>
<!-- n5&#45;&gt;n4 -->
<g id="edge4" class="edge"><title>n5&#45;&gt;n4</title>
<path fill="none" stroke="black" d="M129.695,-818.789C131.493,-765.183 136.217,-662.555 147.693,-575.98 154.3,-526.143 157.279,-513.742 169.693,-465.026 171.89,-456.407 174.45,-447.36 177.092,-438.537"/>
<polygon fill="black" stroke="black" points="180.521,-439.292 180.093,-428.706 173.826,-437.248 180.521,-439.292"/>
</g>
<!-- n10 -->
<g id="node10" class="node"><title>n10</title>
<g id="a_node10"><a xlink:title="[[C]]:&#45;1_">
<ellipse fill="none" stroke="black" cx="285.693" cy="-735.016" rx="124.402" ry="48.1667"/>
<text text-anchor="middle" x="285.693" y="-753.816" font-family="Times,serif" font-size="14.00">Node10</text>
<text text-anchor="start" x="205.693" y="-738.816" font-family="Times,serif" font-size="14.00">module = nn.JoinTable</text>
<text text-anchor="start" x="205.693" y="-723.816" font-family="Times,serif" font-size="14.00">reverseMap = {}</text>
<text text-anchor="middle" x="285.693" y="-708.816" font-family="Times,serif" font-size="14.00">mapindex = {Node9,Node5}</text>
</a>
</g>
</g>
<!-- n5&#45;&gt;n10 -->
<g id="edge12" class="edge"><title>n5&#45;&gt;n10</title>
<path fill="none" stroke="black" d="M170.354,-823.85C186.124,-811.841 204.459,-797.878 221.807,-784.667"/>
<polygon fill="black" stroke="black" points="224.394,-787.097 230.229,-778.254 220.153,-781.528 224.394,-787.097"/>
</g>
<!-- n6 -->
<g id="node6" class="node"><title>n6</title>
<g id="a_node6"><a xlink:title="[[C]]:&#45;1_">
<ellipse fill="none" stroke="black" cx="262.693" cy="-502.503" rx="84.2917" ry="37.4533"/>
<text text-anchor="middle" x="262.693" y="-513.803" font-family="Times,serif" font-size="14.00">Node6</text>
<text text-anchor="start" x="211.193" y="-498.803" font-family="Times,serif" font-size="14.00">module = nn.Tanh</text>
<text text-anchor="middle" x="262.693" y="-483.803" font-family="Times,serif" font-size="14.00">reverseMap = {}</text>
</a>
</g>
</g>
<!-- n6&#45;&gt;n4 -->
<g id="edge5" class="edge"><title>n6&#45;&gt;n4</title>
<path fill="none" stroke="black" d="M242.773,-465.955C237.693,-456.89 232.112,-446.931 226.623,-437.137"/>
<polygon fill="black" stroke="black" points="229.568,-435.232 221.626,-428.219 223.461,-438.654 229.568,-435.232"/>
</g>
<!-- n7 -->
<g id="node7" class="node"><title>n7</title>
<g id="a_node7"><a xlink:title="[[C]]:&#45;1_">
<ellipse fill="none" stroke="black" cx="128.693" cy="-967.53" rx="128.887" ry="37.4533"/>
<text text-anchor="middle" x="128.693" y="-978.83" font-family="Times,serif" font-size="14.00">Node7</text>
<text text-anchor="start" x="45.6934" y="-963.83" font-family="Times,serif" font-size="14.00">module = nn.Linear(10 &#45;&gt; 20)</text>
<text text-anchor="middle" x="128.693" y="-948.83" font-family="Times,serif" font-size="14.00">reverseMap = {}</text>
</a>
</g>
</g>
<!-- n7&#45;&gt;n5 -->
<g id="edge6" class="edge"><title>n7&#45;&gt;n5</title>
<path fill="none" stroke="black" d="M128.693,-929.947C128.693,-921.772 128.693,-912.992 128.693,-904.466"/>
<polygon fill="black" stroke="black" points="132.194,-904.248 128.693,-894.248 125.194,-904.248 132.194,-904.248"/>
</g>
<!-- n8 -->
<g id="node8" class="node"><title>n8</title>
<g id="a_node8"><a xlink:title="[[C]]:&#45;1_">
<ellipse fill="none" stroke="black" cx="285.693" cy="-613.456" rx="128.887" ry="37.4533"/>
<text text-anchor="middle" x="285.693" y="-624.756" font-family="Times,serif" font-size="14.00">Node8</text>
<text text-anchor="start" x="202.693" y="-609.756" font-family="Times,serif" font-size="14.00">module = nn.Linear(30 &#45;&gt; 60)</text>
<text text-anchor="middle" x="285.693" y="-594.756" font-family="Times,serif" font-size="14.00">reverseMap = {}</text>
</a>
</g>
</g>
<!-- n8&#45;&gt;n6 -->
<g id="edge7" class="edge"><title>n8&#45;&gt;n6</title>
<path fill="none" stroke="black" d="M277.971,-575.873C276.226,-567.609 274.351,-558.726 272.532,-550.112"/>
<polygon fill="black" stroke="black" points="275.925,-549.236 270.435,-540.175 269.076,-550.682 275.925,-549.236"/>
</g>
<!-- n9 -->
<g id="node9" class="node"><title>n9</title>
<g id="a_node9"><a xlink:title="[[C]]:&#45;1_">
<ellipse fill="none" stroke="black" cx="206.693" cy="-1078.48" rx="94.0904" ry="37.4533"/>
<text text-anchor="middle" x="206.693" y="-1089.78" font-family="Times,serif" font-size="14.00">Node9</text>
<text text-anchor="start" x="148.193" y="-1074.78" font-family="Times,serif" font-size="14.00">module = nn.Identity</text>
<text text-anchor="middle" x="206.693" y="-1059.78" font-family="Times,serif" font-size="14.00">reverseMap = {}</text>
</a>
</g>
</g>
<!-- n9&#45;&gt;n7 -->
<g id="edge8" class="edge"><title>n9&#45;&gt;n7</title>
<path fill="none" stroke="black" d="M181.369,-1042.11C174.694,-1032.79 167.408,-1022.61 160.441,-1012.88"/>
<polygon fill="black" stroke="black" points="163.092,-1010.57 154.425,-1004.47 157.4,-1014.64 163.092,-1010.57"/>
</g>
<!-- n9&#45;&gt;n10 -->
<g id="edge11" class="edge"><title>n9&#45;&gt;n10</title>
<path fill="none" stroke="black" d="M242.136,-1043.54C251.784,-1032.24 261.105,-1018.96 266.693,-1005.01 294.308,-936.069 294.996,-849.285 291.524,-793.24"/>
<polygon fill="black" stroke="black" points="295.007,-792.882 290.833,-783.144 288.024,-793.36 295.007,-792.882"/>
</g>
<!-- n10&#45;&gt;n8 -->
<g id="edge9" class="edge"><title>n10&#45;&gt;n8</title>
<path fill="none" stroke="black" d="M285.693,-686.763C285.693,-678.318 285.693,-669.523 285.693,-661.095"/>
<polygon fill="black" stroke="black" points="289.194,-661.044 285.693,-651.044 282.194,-661.044 289.194,-661.044"/>
</g>
<!-- n11 -->
<g id="node11" class="node"><title>n11</title>
<g id="a_node11"><a xlink:title="[[C]]:&#45;1_">
<ellipse fill="none" stroke="black" cx="206.693" cy="-1189.44" rx="77.5641" ry="37.4533"/>
<text text-anchor="middle" x="206.693" y="-1200.74" font-family="Times,serif" font-size="14.00">Node11</text>
<text text-anchor="start" x="159.693" y="-1185.74" font-family="Times,serif" font-size="14.00">input = {}</text>
<text text-anchor="middle" x="206.693" y="-1170.74" font-family="Times,serif" font-size="14.00">reverseMap = {}</text>
</a>
</g>
</g>
<!-- n11&#45;&gt;n9 -->
<g id="edge10" class="edge"><title>n11&#45;&gt;n9</title>
<path fill="none" stroke="black" d="M206.693,-1151.85C206.693,-1143.68 206.693,-1134.9 206.693,-1126.37"/>
<polygon fill="black" stroke="black" points="210.194,-1126.15 206.693,-1116.15 203.194,-1126.15 210.194,-1126.15"/>
</g>
</g>
</svg>
